<svg version="1" xmlns="http://www.w3.org/2000/svg" width="682.667" height="682.667" viewBox="0 0 512.000000 512.000000"><path d="M236.2 50c-66.1 7-124.1 43.8-158 100.1-6.8 11.4-9.7 17.3-15.3 31.4-2.7 6.6-4.8 11.5-4.9 10.8 0-.6.5-2.4 1-3.9.9-2.2.8-3.1-.6-4.3-1.5-1.5-1.6-1.5-1.1.1.4 1 .2 1.8-.4 1.8-.7 0-.9-1.2-.7-3 .3-1.7.1-3-.3-3-.3 0-.9-.9-1.2-2-.3-1.1-.2-1.8.1-1.6.4.2.8-2.4.8-5.7.1-3.4.9-8.7 1.8-11.8.9-3.1 1.3-6.4 1-7.4-.5-1.2-.4-1.6.4-1.1.6.3 1.6-.3 2.2-1.5 1-1.7.9-2-.1-1.4-.9.6-1.1.3-.6-.8 1.2-3.2-.3-1.7-2.4 2.4-1.1 2.3-1.5 3.8-.8 3.4.7-.5 1-.3.7.6-.3.8-1.1 1.3-1.7 1.1-.7-.1-.9.3-.5.9.6 1.1-4.5 13.3-5.3 12.5-.3-.2.5-2.3 1.7-4.6s1.9-4.4 1.7-4.6c-.2-.3-1.8 2.7-3.6 6.6-3.2 7.3-4 10.3-1.6 6 2.1-3.6 1.7-1.2-.6 3.5-1 2.2-1.6 3-1.3 1.7.3-1.2.3-2.2.1-2.2-.9 0-7.6 21.1-10.1 32-3.6 14.9-5.6 31.8-5.8 48.3-.1 10.3-.3 13-.9 9.7-1-6.2-.1 19.2 1.2 30 3.4 29.8 14.4 62.3 29.7 88 28.1 47.2 72.3 82.8 123.7 99.9 25.2 8.3 44.4 11.4 71.5 11.4s46.3-3.1 71.5-11.4C410.3 454.4 471 380 480.9 294c1.3-10.8 2.2-36.2 1.2-30-.6 3.3-.8.5-1-10-.2-16.1-1.9-31.5-5.2-46.3-1.5-6.5-2.5-9.4-3.1-8.5-.6.9-.7.5-.3-1 .6-2.1-5.9-24.2-7.2-24.2-.2 0-.2 1 .1 2.2.3 1.3-.3.5-1.3-1.7-2.3-4.7-2.7-7.1-.6-3.5 2.4 4.3 1.6 1.3-1.6-6-1.8-3.9-3.4-6.9-3.6-6.6-.2.2.5 2.3 1.7 4.6s2 4.4 1.7 4.6c-.8.8-5.9-11.4-5.3-12.5.4-.6.2-1-.5-.9-.6.2-1.4-.3-1.7-1.1-.3-.9 0-1.1.7-.6.7.4.3-1.1-.8-3.4-2.4-4.7-2.7-4.9-2.7-2.2 0 1.1.5 1.7 1 1.4.5-.4.7.1.4.9-.4.8.2 4.1 1.3 7.3 2.2 6.7 3.8 25.2 2.1 24.1-.7-.4-1 .4-.9 2.1.2 2.2-.2 2.7-1.5 2.5-2.2-.4-2.2.4-.3 5.8.8 2.3 1.5 4.8 1.4 5.4 0 .6-1.7-3.6-3.8-9.4-14.2-39.1-38.3-71.5-71.8-96.7-26.6-19.9-56.1-32.6-89.3-38.2-14.2-2.5-40.7-3.5-53.8-2.1zM277 62.6c8.9 2.2 22.2 8.5 24.8 11.8 5.1 6.6 8.2 21.1 10.3 48.3 1.3 18 .7 45.2-1.1 50.6-3.6 10.2-13.7 16.4-32 19.8-6.3 1.1-12.5 2.3-13.8 2.5-1.7.3-2.2 1-2 2.6.2 1.7 2.9 3 16.3 7.5l16 5.4 8.2-2.8c4.5-1.5 8-2.9 7.8-3.1-.2-.3.2-1.7 1.1-3.3 1.9-3.7 6.6-6.1 11.4-5.8 2.1.2 4.4-.2 5.2-.7 2.4-2 9.8-4.4 13.1-4.4 4.2 0 7.5 3.3 11.6 11.5 3.8 7.4 3.9 10.4.5 14.5-3.3 3.8-12.8 10.4-19.9 13.6-5.7 2.7-22.1 4.9-35.5 4.9-7.3 0-7.9-.2-14.3-4.4-3.7-2.4-7-4.1-7.3-3.8-.3.3.2 2 1.1 3.8 3 5.7 5.5 14.1 5.5 18.2 0 2.2 1.6 11.2 3.5 19.8 5.7 25.8 6.9 34.8 5.5 42.6-2.3 13.3-8.8 22.1-20.4 27.8-7.2 3.5-15.5 4.8-27.6 4.2-13.5-.6-20-2.9-27.8-10.2-11.8-10.9-15.9-22-14.8-40.1.8-14.3 2.8-25.8 6.5-36.7 1.6-4.8 2.6-8.7 2.2-8.7-2.7 0-8.9 3.8-13.9 8.3-3.1 2.9-8.9 7.8-12.8 10.9l-7.2 5.7-1.7 7.6c-1.8 8.2-5.1 13.5-11.8 18.9-4.5 3.6-10.9 4.1-13.1 1-1.2-1.5-1.6-1.6-3-.5-.9.7-1.6 1.9-1.6 2.7 0 1.6-3.9 4.4-6.1 4.4-2.1 0-12.2-9.1-16.1-14.4-4.4-6.1-3.9-7.5 6.5-18.3s19.9-18.4 37.2-30c17.8-11.8 19.6-12.7 36.5-18.3 8.5-2.9 16.2-5.6 17-6 1.9-1 5.3-16.8 4.8-22.4-.3-3.8-.5-4-5.6-5.7-7.3-2.5-20.6-9.7-25.3-13.7-5.7-4.9-8.5-10.4-11.4-22.2-6.3-26.3-4.6-44.7 5.7-61.5 7-11.2 22.9-23.2 39.3-29.5 12.5-4.8 34.3-5.8 48.5-2.4zM57.4 197.4c-.3 1.5-.8 2.5-1.1 2.3-.2-.3-.1-1.7.3-3.1.3-1.5.8-2.5 1.1-2.3.2.3.1 1.7-.3 3.1zm138.2 170.7c8.8 4.2 12.4 12.9 12.4 30.2 0 10.2.3 12 4 23.5 3.9 11.9 4 12.5 2.4 14.9-1.6 2.5-1.9 2.6-9.9 2-9.1-.6-23.1-4.5-31-8.4-8.1-4.1-22.6-13.4-26.7-17.1-4.7-4.2-4.8-6.5-.8-16.3 6.9-17 16.8-26 32.4-29.4 8.7-1.9 12.4-1.8 17.2.6zm116.3 7.4c3.8 1.8 8.4 5.6 15 12.2 5.8 5.8 13.4 12.1 19.1 15.8 5.2 3.4 10.4 7.2 11.4 8.4 1.9 2.1 1.9 2.2 0 4.7-2.5 3.4-13.8 10.1-24.4 14.6-15.9 6.7-39.8 12.1-43.8 9.9-3.9-2.1-7.2-7.4-9.8-15.7-2.3-7.4-2.6-9.7-2.2-17.7.4-7.7 1-10.4 3.6-15.7 5.7-12.1 13.8-18.9 22.2-19 1.9 0 5.9 1.2 8.9 2.5zM73.9 123.7c-1.3 1.6-1.2 1.7.4.4.9-.7 1.7-1.5 1.7-1.7 0-.8-.8-.3-2.1 1.3zM436 122.4c0 .2.8 1 1.8 1.7 1.5 1.3 1.6 1.2.3-.4s-2.1-2.1-2.1-1.3zM65.4 136.2c-.4.7-1.4 2.4-2.2 3.8-1.4 2.4-1.3 2.4.3.5 2-2.4 3.7-5.5 3.1-5.5-.3 0-.8.6-1.2 1.2zM445.9 136.5c.5 1.1 1.7 2.9 2.6 4l1.6 2-1-2c-.5-1.1-1.7-2.9-2.6-4l-1.6-2 1 2z"/></svg>